<?xml version="1.0" encoding="utf-8"?>
<!-- Generator: Adobe Illustrator 27.3.1, SVG Export Plug-In . SVG Version: 6.00 Build 0)  -->
<svg version="1.1" id="Capa_1" xmlns="http://www.w3.org/2000/svg" xmlns:xlink="http://www.w3.org/1999/xlink" x="0px" y="0px"
	 viewBox="0 0 235 225" style="enable-background:new 0 0 235 225;" xml:space="preserve">
<style type="text/css">
	.st0{fill:none;stroke:#000000;stroke-width:2;stroke-miterlimit:10;}
	.st1{stroke:#000000;stroke-width:2;stroke-miterlimit:10;}
</style>
<circle cx="117.5" cy="114.06" r="32.25"/>
<g id="XMLID_00000054226347217811083130000015921539473255834041_">
	<g>
		<path d="M81,42.87c3.21,10.76,11.88,19.16,22.79,21.99c-6.69,0.65-17.88,3.29-26.2,13.15c-6.27,7.44-8.09,15.63-8.61,20.75
			C65.7,88,56.94,79.64,45.96,76.9c6.65-0.61,18-3.2,26.42-13.18C78.7,56.24,80.5,47.99,81,42.87z"/>
		<path d="M103.79,64.86C92.88,62.03,84.21,53.63,81,42.87c-0.87-2.93-1.34-6.02-1.34-9.23c0-17.81,14.44-32.25,32.25-32.25
			c17.82,0,32.25,14.44,32.25,32.25s-14.43,32.25-32.25,32.25C109.1,65.89,106.38,65.53,103.79,64.86z"/>
		<path d="M68.98,98.76c0.91,2.98,1.4,6.15,1.4,9.43c0,17.81-14.44,32.25-32.25,32.25S5.88,126,5.88,108.19s14.44-32.25,32.25-32.25
			c2.7,0,5.32,0.33,7.83,0.96C56.94,79.64,65.7,88,68.98,98.76z"/>
	</g>
	<g>
		<path class="st0" d="M40.65,77.04c0.62,0.03,2.56,0.12,5.31-0.14c6.65-0.61,18-3.2,26.42-13.18C78.7,56.24,80.5,47.99,81,42.87
			c0.17-1.8,0.19-3.2,0.18-4.06"/>
		<path class="st0" d="M109.32,64.69c-0.64-0.03-2.67-0.11-5.53,0.17c-6.69,0.65-17.88,3.29-26.2,13.15
			c-6.27,7.44-8.09,15.63-8.61,20.75c-0.18,1.85-0.2,3.29-0.19,4.17"/>
	</g>
</g>
<g id="XMLID_00000034076889101402490450000015586028952233095829_">
	<g>
		<path d="M188.19,149.42c-10.92-2.83-19.59-11.23-22.8-21.99c-0.87-2.93-1.34-6.02-1.34-9.23c0-17.81,14.44-32.25,32.25-32.25
			s32.25,14.44,32.25,32.25s-14.44,32.25-32.25,32.25C193.5,150.45,190.78,150.09,188.19,149.42z"/>
		<path d="M165.39,127.43c3.21,10.76,11.88,19.16,22.8,21.99c-6.69,0.65-17.88,3.28-26.21,13.16c-6.27,7.43-8.1,15.63-8.61,20.75
			c-3.28-10.76-12.03-19.13-23.01-21.86c6.67-0.63,18-3.21,26.41-13.18C163.08,140.8,164.89,132.55,165.39,127.43z"/>
		<path d="M153.37,183.33c0.91,2.98,1.4,6.14,1.4,9.42c0,17.82-14.44,32.25-32.25,32.25c-17.82,0-32.25-14.43-32.25-32.25
			c0-17.81,14.43-32.25,32.25-32.25c2.7,0,5.33,0.33,7.84,0.97C141.34,164.2,150.09,172.57,153.37,183.33z"/>
	</g>
	<g>
		<path class="st0" d="M125.04,161.61c0.62,0.03,2.57,0.11,5.32-0.14c6.67-0.63,18-3.21,26.41-13.18
			c6.31-7.49,8.12-15.74,8.62-20.86c0.17-1.79,0.19-3.2,0.18-4.06"/>
		<path class="st0" d="M193.71,149.26c-0.63-0.04-2.67-0.12-5.52,0.16c-6.69,0.65-17.88,3.28-26.21,13.16
			c-6.27,7.43-8.1,15.63-8.61,20.75c-0.18,1.84-0.2,3.29-0.19,4.16"/>
	</g>
</g>
<path class="st1" d="M79.3,194.15c-0.19,0-42,0-42,0v-47h9.57l-0.06,37.5l32.49-0.06V194.15z"/>
<path class="st1" d="M198.96,74.88c0-0.19,0-42,0-42l-46.4,0l0,9.57l37.02-0.06l-0.06,32.49H198.96z"/>
<path class="st1" d="M198.96,160.84c0,0.15,0,33.31,0,33.31l-37.19,0v-7.59l29.67,0.05l-0.05-25.77H198.96z"/>
<path class="st1" d="M35.13,66.95c0-0.15,0-33.31,0-33.31l37.19,0l0,7.59l-29.67-0.05l0.05,25.77H35.13z"/>
</svg>
